<mxfile host="app.diagrams.net" modified="2023-07-06T02:46:39.441Z" agent="Mozilla/5.0 (Windows NT 10.0; Win64; x64) AppleWebKit/537.36 (KHTML, like Gecko) Chrome/114.0.0.0 Safari/537.36" etag="dBq7RZcq_ytHW4Lge5so" version="21.6.1" type="google">
  <diagram name="Page-1" id="HDnD4fu5xDfi00Fz_8io">
    <mxGraphModel grid="1" page="1" gridSize="10" guides="1" tooltips="1" connect="1" arrows="1" fold="1" pageScale="1" pageWidth="850" pageHeight="1100" math="0" shadow="0">
      <root>
        <mxCell id="0" />
        <mxCell id="1" parent="0" />
        <mxCell id="Cth6C3M8y_-AIjd2zebk-1" value="&lt;font style=&quot;font-size: 24px;&quot; face=&quot;Times New Roman&quot;&gt;&lt;b&gt;&lt;font style=&quot;font-size: 24px;&quot;&gt;Optimization of Distributed Queries&lt;/font&gt;&lt;/b&gt;&amp;nbsp;&lt;/font&gt;" style="rounded=1;whiteSpace=wrap;html=1;strokeWidth=3;" vertex="1" parent="1">
          <mxGeometry x="157" y="-1062" width="270" height="187" as="geometry" />
        </mxCell>
        <mxCell id="Cth6C3M8y_-AIjd2zebk-2" value="&lt;b style=&quot;border-color: var(--border-color); font-family: &amp;quot;Times New Roman&amp;quot;; font-size: 15px;&quot;&gt;Query Optimization&lt;/b&gt;" style="rounded=1;whiteSpace=wrap;html=1;strokeWidth=3;" vertex="1" parent="1">
          <mxGeometry x="786" y="-1744" width="170" height="70" as="geometry" />
        </mxCell>
        <mxCell id="Cth6C3M8y_-AIjd2zebk-10" value="" style="endArrow=classic;html=1;rounded=0;entryX=0;entryY=0.5;entryDx=0;entryDy=0;strokeWidth=3;" edge="1" parent="1" target="Cth6C3M8y_-AIjd2zebk-2">
          <mxGeometry width="50" height="50" relative="1" as="geometry">
            <mxPoint x="616" y="-1709" as="sourcePoint" />
            <mxPoint x="626" y="-1404" as="targetPoint" />
          </mxGeometry>
        </mxCell>
        <mxCell id="Cth6C3M8y_-AIjd2zebk-12" value="&lt;div style=&quot;font-size: 15px;&quot;&gt;&lt;font style=&quot;font-size: 15px;&quot;&gt;&lt;b&gt;Centralized Query Optimization&lt;/b&gt;&lt;/font&gt;&lt;/div&gt;" style="rounded=1;whiteSpace=wrap;html=1;strokeWidth=3;" vertex="1" parent="1">
          <mxGeometry x="787" y="-1213" width="170" height="70" as="geometry" />
        </mxCell>
        <mxCell id="Cth6C3M8y_-AIjd2zebk-13" value="" style="endArrow=classic;html=1;rounded=0;entryX=0;entryY=0.5;entryDx=0;entryDy=0;strokeWidth=3;" edge="1" parent="1">
          <mxGeometry width="50" height="50" relative="1" as="geometry">
            <mxPoint x="617" y="-1178.5" as="sourcePoint" />
            <mxPoint x="787" y="-1178.5" as="targetPoint" />
          </mxGeometry>
        </mxCell>
        <mxCell id="Cth6C3M8y_-AIjd2zebk-15" value="&lt;div style=&quot;border-color: var(--border-color); font-size: 15px;&quot;&gt;&lt;font style=&quot;border-color: var(--border-color);&quot;&gt;&lt;b style=&quot;border-color: var(--border-color);&quot;&gt;Join Ordering in Distributed Queries&lt;/b&gt;&lt;/font&gt;&lt;/div&gt;" style="rounded=1;whiteSpace=wrap;html=1;strokeWidth=3;" vertex="1" parent="1">
          <mxGeometry x="795" y="-798" width="170" height="70" as="geometry" />
        </mxCell>
        <mxCell id="Cth6C3M8y_-AIjd2zebk-16" value="" style="endArrow=classic;html=1;rounded=0;entryX=0;entryY=0.5;entryDx=0;entryDy=0;strokeWidth=3;" edge="1" parent="1">
          <mxGeometry width="50" height="50" relative="1" as="geometry">
            <mxPoint x="615" y="-758" as="sourcePoint" />
            <mxPoint x="795" y="-758" as="targetPoint" />
            <Array as="points" />
          </mxGeometry>
        </mxCell>
        <mxCell id="Cth6C3M8y_-AIjd2zebk-17" value="&lt;b style=&quot;border-color: var(--border-color); font-size: 15px;&quot;&gt;Distributed Query Optimization&lt;/b&gt;" style="rounded=1;whiteSpace=wrap;html=1;strokeWidth=3;" vertex="1" parent="1">
          <mxGeometry x="787" y="-355" width="170" height="70" as="geometry" />
        </mxCell>
        <mxCell id="Cth6C3M8y_-AIjd2zebk-18" value="" style="endArrow=classic;html=1;rounded=0;entryX=0;entryY=0.5;entryDx=0;entryDy=0;strokeWidth=3;" edge="1" parent="1">
          <mxGeometry width="50" height="50" relative="1" as="geometry">
            <mxPoint x="617" y="-320" as="sourcePoint" />
            <mxPoint x="787" y="-320.5" as="targetPoint" />
          </mxGeometry>
        </mxCell>
        <mxCell id="Cth6C3M8y_-AIjd2zebk-19" value="" style="endArrow=none;html=1;rounded=0;exitX=1;exitY=0.5;exitDx=0;exitDy=0;strokeWidth=3;" edge="1" parent="1">
          <mxGeometry width="50" height="50" relative="1" as="geometry">
            <mxPoint x="956" y="-1714" as="sourcePoint" />
            <mxPoint x="1016" y="-1714" as="targetPoint" />
          </mxGeometry>
        </mxCell>
        <mxCell id="Cth6C3M8y_-AIjd2zebk-20" value="" style="endArrow=classic;html=1;rounded=0;entryX=0;entryY=0.5;entryDx=0;entryDy=0;strokeWidth=3;" edge="1" parent="1">
          <mxGeometry width="50" height="50" relative="1" as="geometry">
            <mxPoint x="1016" y="-1841" as="sourcePoint" />
            <mxPoint x="1186" y="-1841" as="targetPoint" />
          </mxGeometry>
        </mxCell>
        <mxCell id="Cth6C3M8y_-AIjd2zebk-21" value="" style="endArrow=classic;html=1;rounded=0;entryX=0;entryY=0.5;entryDx=0;entryDy=0;strokeWidth=3;" edge="1" parent="1">
          <mxGeometry width="50" height="50" relative="1" as="geometry">
            <mxPoint x="1016" y="-1714" as="sourcePoint" />
            <mxPoint x="1186" y="-1714" as="targetPoint" />
          </mxGeometry>
        </mxCell>
        <mxCell id="Cth6C3M8y_-AIjd2zebk-22" value="" style="endArrow=none;html=1;rounded=0;strokeWidth=3;" edge="1" parent="1">
          <mxGeometry width="50" height="50" relative="1" as="geometry">
            <mxPoint x="1016" y="-1843" as="sourcePoint" />
            <mxPoint x="1016" y="-1594" as="targetPoint" />
          </mxGeometry>
        </mxCell>
        <mxCell id="Cth6C3M8y_-AIjd2zebk-23" value="" style="endArrow=classic;html=1;rounded=0;entryX=0;entryY=0.5;entryDx=0;entryDy=0;strokeWidth=3;" edge="1" parent="1">
          <mxGeometry width="50" height="50" relative="1" as="geometry">
            <mxPoint x="1017" y="-1597" as="sourcePoint" />
            <mxPoint x="1187" y="-1597" as="targetPoint" />
          </mxGeometry>
        </mxCell>
        <mxCell id="Cth6C3M8y_-AIjd2zebk-24" value="&lt;font face=&quot;Times New Roman&quot;&gt;&lt;span style=&quot;font-size: 15px;&quot;&gt;&lt;b&gt;Search space&lt;/b&gt;&lt;/span&gt;&lt;/font&gt;" style="rounded=0;whiteSpace=wrap;html=1;strokeWidth=3;" vertex="1" parent="1">
          <mxGeometry x="1187" y="-1870" width="209" height="60" as="geometry" />
        </mxCell>
        <mxCell id="Cth6C3M8y_-AIjd2zebk-26" value="&lt;font style=&quot;font-size: 15px;&quot; face=&quot;Times New Roman&quot;&gt;&lt;b&gt;Search Strategy&lt;/b&gt;&lt;/font&gt;" style="rounded=0;whiteSpace=wrap;html=1;strokeWidth=3;" vertex="1" parent="1">
          <mxGeometry x="1186" y="-1739" width="220" height="60" as="geometry" />
        </mxCell>
        <mxCell id="Cth6C3M8y_-AIjd2zebk-27" value="&lt;div&gt;&lt;b&gt;&lt;font style=&quot;font-size: 15px;&quot; face=&quot;Times New Roman&quot;&gt;Distributed Cost Model&lt;/font&gt;&lt;/b&gt;&lt;/div&gt;" style="rounded=0;whiteSpace=wrap;html=1;strokeWidth=3;" vertex="1" parent="1">
          <mxGeometry x="1186" y="-1624" width="220" height="60" as="geometry" />
        </mxCell>
        <mxCell id="Cth6C3M8y_-AIjd2zebk-36" value="" style="endArrow=none;html=1;rounded=0;exitX=1;exitY=0.5;exitDx=0;exitDy=0;strokeWidth=3;" edge="1" parent="1">
          <mxGeometry width="50" height="50" relative="1" as="geometry">
            <mxPoint x="1396" y="-1843.5" as="sourcePoint" />
            <mxPoint x="1456" y="-1843.5" as="targetPoint" />
          </mxGeometry>
        </mxCell>
        <mxCell id="Cth6C3M8y_-AIjd2zebk-37" value="" style="endArrow=classic;html=1;rounded=0;entryX=0;entryY=0.5;entryDx=0;entryDy=0;strokeWidth=3;" edge="1" parent="1">
          <mxGeometry width="50" height="50" relative="1" as="geometry">
            <mxPoint x="1455" y="-1894.5" as="sourcePoint" />
            <mxPoint x="1625" y="-1894.5" as="targetPoint" />
          </mxGeometry>
        </mxCell>
        <mxCell id="Cth6C3M8y_-AIjd2zebk-39" value="" style="endArrow=none;html=1;rounded=0;strokeWidth=3;" edge="1" parent="1">
          <mxGeometry width="50" height="50" relative="1" as="geometry">
            <mxPoint x="1456" y="-1893.5" as="sourcePoint" />
            <mxPoint x="1456" y="-1793.5" as="targetPoint" />
          </mxGeometry>
        </mxCell>
        <mxCell id="Cth6C3M8y_-AIjd2zebk-40" value="" style="endArrow=classic;html=1;rounded=0;entryX=0;entryY=0.5;entryDx=0;entryDy=0;strokeWidth=3;" edge="1" parent="1">
          <mxGeometry width="50" height="50" relative="1" as="geometry">
            <mxPoint x="1457" y="-1796.5" as="sourcePoint" />
            <mxPoint x="1627" y="-1796.5" as="targetPoint" />
          </mxGeometry>
        </mxCell>
        <mxCell id="Cth6C3M8y_-AIjd2zebk-41" value="&lt;font size=&quot;1&quot; face=&quot;Times New Roman&quot;&gt;&lt;b style=&quot;font-size: 14px;&quot;&gt;linear join tree&lt;/b&gt;&lt;/font&gt;" style="rounded=0;whiteSpace=wrap;html=1;strokeWidth=3;" vertex="1" parent="1">
          <mxGeometry x="1625" y="-1916.5" width="250" height="60" as="geometry" />
        </mxCell>
        <mxCell id="Cth6C3M8y_-AIjd2zebk-43" value="&lt;font face=&quot;Times New Roman&quot; style=&quot;font-size: 15px;&quot;&gt;&lt;b&gt;bushy join tree&lt;/b&gt;&lt;/font&gt;" style="rounded=0;whiteSpace=wrap;html=1;strokeWidth=3;" vertex="1" parent="1">
          <mxGeometry x="1626" y="-1823.5" width="249" height="60" as="geometry" />
        </mxCell>
        <mxCell id="h31C9qJfq2-c_-45Vrlb-31" value="" style="endArrow=none;html=1;rounded=0;exitX=1;exitY=0.5;exitDx=0;exitDy=0;strokeWidth=3;" edge="1" parent="1">
          <mxGeometry width="50" height="50" relative="1" as="geometry">
            <mxPoint x="957" y="-1178" as="sourcePoint" />
            <mxPoint x="1017" y="-1178" as="targetPoint" />
          </mxGeometry>
        </mxCell>
        <mxCell id="h31C9qJfq2-c_-45Vrlb-32" value="" style="endArrow=classic;html=1;rounded=0;entryX=0;entryY=0.5;entryDx=0;entryDy=0;strokeWidth=3;" edge="1" parent="1">
          <mxGeometry width="50" height="50" relative="1" as="geometry">
            <mxPoint x="1015" y="-1328" as="sourcePoint" />
            <mxPoint x="1185" y="-1328" as="targetPoint" />
          </mxGeometry>
        </mxCell>
        <mxCell id="h31C9qJfq2-c_-45Vrlb-33" value="" style="endArrow=classic;html=1;rounded=0;entryX=0;entryY=0.5;entryDx=0;entryDy=0;strokeWidth=3;" edge="1" parent="1">
          <mxGeometry width="50" height="50" relative="1" as="geometry">
            <mxPoint x="1017" y="-1178" as="sourcePoint" />
            <mxPoint x="1187" y="-1178" as="targetPoint" />
          </mxGeometry>
        </mxCell>
        <mxCell id="h31C9qJfq2-c_-45Vrlb-34" value="" style="endArrow=none;html=1;rounded=0;strokeWidth=3;" edge="1" parent="1">
          <mxGeometry width="50" height="50" relative="1" as="geometry">
            <mxPoint x="1017" y="-1329" as="sourcePoint" />
            <mxPoint x="1017" y="-1059" as="targetPoint" />
          </mxGeometry>
        </mxCell>
        <mxCell id="h31C9qJfq2-c_-45Vrlb-35" value="" style="endArrow=classic;html=1;rounded=0;entryX=0;entryY=0.5;entryDx=0;entryDy=0;strokeWidth=3;" edge="1" parent="1">
          <mxGeometry width="50" height="50" relative="1" as="geometry">
            <mxPoint x="1019" y="-1061" as="sourcePoint" />
            <mxPoint x="1189" y="-1061" as="targetPoint" />
          </mxGeometry>
        </mxCell>
        <mxCell id="h31C9qJfq2-c_-45Vrlb-36" value="&lt;font face=&quot;Times New Roman&quot;&gt;&lt;span style=&quot;font-size: 15px;&quot;&gt;&lt;b&gt;Dynamic Query Optimization&lt;/b&gt;&lt;/span&gt;&lt;/font&gt;" style="rounded=0;whiteSpace=wrap;html=1;strokeWidth=3;" vertex="1" parent="1">
          <mxGeometry x="1186" y="-1358" width="220" height="60" as="geometry" />
        </mxCell>
        <mxCell id="h31C9qJfq2-c_-45Vrlb-37" value="&lt;b&gt;&lt;font face=&quot;Times New Roman&quot; style=&quot;font-size: 15px;&quot;&gt;Static Query Optimization&lt;/font&gt;&lt;/b&gt;" style="rounded=0;whiteSpace=wrap;html=1;strokeWidth=3;" vertex="1" parent="1">
          <mxGeometry x="1187" y="-1203" width="220" height="60" as="geometry" />
        </mxCell>
        <mxCell id="h31C9qJfq2-c_-45Vrlb-38" value="&lt;b&gt;&lt;font face=&quot;Times New Roman&quot; style=&quot;font-size: 15px;&quot;&gt;Hybrid Query Optimization&lt;/font&gt;&lt;/b&gt;" style="rounded=0;whiteSpace=wrap;html=1;strokeWidth=3;" vertex="1" parent="1">
          <mxGeometry x="1187" y="-1088" width="220" height="60" as="geometry" />
        </mxCell>
        <mxCell id="h31C9qJfq2-c_-45Vrlb-39" value="" style="endArrow=none;html=1;rounded=0;exitX=1;exitY=0.571;exitDx=0;exitDy=0;strokeWidth=3;exitPerimeter=0;" edge="1" parent="1" source="Cth6C3M8y_-AIjd2zebk-15">
          <mxGeometry width="50" height="50" relative="1" as="geometry">
            <mxPoint x="975" y="-758" as="sourcePoint" />
            <mxPoint x="1035" y="-758" as="targetPoint" />
            <Array as="points">
              <mxPoint x="995" y="-758" />
            </Array>
          </mxGeometry>
        </mxCell>
        <mxCell id="h31C9qJfq2-c_-45Vrlb-40" value="" style="endArrow=classic;html=1;rounded=0;entryX=0;entryY=0.5;entryDx=0;entryDy=0;strokeWidth=3;" edge="1" parent="1">
          <mxGeometry width="50" height="50" relative="1" as="geometry">
            <mxPoint x="1034" y="-909" as="sourcePoint" />
            <mxPoint x="1204" y="-909" as="targetPoint" />
          </mxGeometry>
        </mxCell>
        <mxCell id="h31C9qJfq2-c_-45Vrlb-41" value="" style="endArrow=classic;html=1;rounded=0;entryX=0;entryY=0.5;entryDx=0;entryDy=0;strokeWidth=3;" edge="1" parent="1">
          <mxGeometry width="50" height="50" relative="1" as="geometry">
            <mxPoint x="1035" y="-758" as="sourcePoint" />
            <mxPoint x="1205" y="-758" as="targetPoint" />
          </mxGeometry>
        </mxCell>
        <mxCell id="h31C9qJfq2-c_-45Vrlb-42" value="" style="endArrow=none;html=1;rounded=0;strokeWidth=3;" edge="1" parent="1">
          <mxGeometry width="50" height="50" relative="1" as="geometry">
            <mxPoint x="1035" y="-909" as="sourcePoint" />
            <mxPoint x="1035" y="-639" as="targetPoint" />
          </mxGeometry>
        </mxCell>
        <mxCell id="h31C9qJfq2-c_-45Vrlb-43" value="" style="endArrow=classic;html=1;rounded=0;entryX=0;entryY=0.5;entryDx=0;entryDy=0;strokeWidth=3;" edge="1" parent="1">
          <mxGeometry width="50" height="50" relative="1" as="geometry">
            <mxPoint x="1036" y="-641" as="sourcePoint" />
            <mxPoint x="1206" y="-641" as="targetPoint" />
          </mxGeometry>
        </mxCell>
        <mxCell id="h31C9qJfq2-c_-45Vrlb-44" value="&lt;font face=&quot;Times New Roman&quot;&gt;&lt;span style=&quot;font-size: 15px;&quot;&gt;&lt;b&gt;Join Ordering&lt;/b&gt;&lt;/span&gt;&lt;/font&gt;" style="rounded=0;whiteSpace=wrap;html=1;strokeWidth=3;" vertex="1" parent="1">
          <mxGeometry x="1205" y="-938" width="210" height="60" as="geometry" />
        </mxCell>
        <mxCell id="h31C9qJfq2-c_-45Vrlb-45" value="&lt;b&gt;&lt;font face=&quot;Times New Roman&quot; style=&quot;font-size: 15px;&quot;&gt;Semijoin Based Algorithms&lt;/font&gt;&lt;/b&gt;" style="rounded=0;whiteSpace=wrap;html=1;strokeWidth=3;" vertex="1" parent="1">
          <mxGeometry x="1205" y="-783" width="220" height="60" as="geometry" />
        </mxCell>
        <mxCell id="h31C9qJfq2-c_-45Vrlb-46" value="&lt;b&gt;&lt;font face=&quot;Times New Roman&quot; style=&quot;font-size: 15px;&quot;&gt;Join Versus Semijoin&lt;/font&gt;&lt;/b&gt;" style="rounded=0;whiteSpace=wrap;html=1;strokeWidth=3;" vertex="1" parent="1">
          <mxGeometry x="1205" y="-668" width="220" height="60" as="geometry" />
        </mxCell>
        <mxCell id="h31C9qJfq2-c_-45Vrlb-47" value="" style="endArrow=none;html=1;rounded=0;exitX=1;exitY=0.5;exitDx=0;exitDy=0;strokeWidth=3;" edge="1" parent="1">
          <mxGeometry width="50" height="50" relative="1" as="geometry">
            <mxPoint x="1418" y="-910" as="sourcePoint" />
            <mxPoint x="1478" y="-910" as="targetPoint" />
          </mxGeometry>
        </mxCell>
        <mxCell id="h31C9qJfq2-c_-45Vrlb-48" value="" style="endArrow=classic;html=1;rounded=0;entryX=0;entryY=0.5;entryDx=0;entryDy=0;strokeWidth=3;" edge="1" parent="1">
          <mxGeometry width="50" height="50" relative="1" as="geometry">
            <mxPoint x="1480.5" y="-1005.5" as="sourcePoint" />
            <mxPoint x="1650.5" y="-1005.5" as="targetPoint" />
            <Array as="points">
              <mxPoint x="1571.5" y="-1005.5" />
            </Array>
          </mxGeometry>
        </mxCell>
        <mxCell id="h31C9qJfq2-c_-45Vrlb-49" value="" style="endArrow=classic;html=1;rounded=0;entryX=0;entryY=0.5;entryDx=0;entryDy=0;strokeWidth=3;" edge="1" parent="1">
          <mxGeometry width="50" height="50" relative="1" as="geometry">
            <mxPoint x="1481.5" y="-910" as="sourcePoint" />
            <mxPoint x="1651.5" y="-910" as="targetPoint" />
          </mxGeometry>
        </mxCell>
        <mxCell id="h31C9qJfq2-c_-45Vrlb-50" value="" style="endArrow=none;html=1;rounded=0;strokeWidth=3;" edge="1" parent="1">
          <mxGeometry width="50" height="50" relative="1" as="geometry">
            <mxPoint x="1481.5" y="-1005" as="sourcePoint" />
            <mxPoint x="1481.5" y="-805" as="targetPoint" />
          </mxGeometry>
        </mxCell>
        <mxCell id="h31C9qJfq2-c_-45Vrlb-51" value="" style="endArrow=classic;html=1;rounded=0;entryX=0;entryY=0.5;entryDx=0;entryDy=0;strokeWidth=3;" edge="1" parent="1">
          <mxGeometry width="50" height="50" relative="1" as="geometry">
            <mxPoint x="1481.5" y="-805" as="sourcePoint" />
            <mxPoint x="1651.5" y="-805" as="targetPoint" />
          </mxGeometry>
        </mxCell>
        <mxCell id="h31C9qJfq2-c_-45Vrlb-52" value="&lt;font face=&quot;Times New Roman&quot;&gt;&lt;span style=&quot;font-size: 15px;&quot;&gt;&lt;b&gt;EMP&lt;/b&gt;&lt;/span&gt;&lt;/font&gt;" style="rounded=0;whiteSpace=wrap;html=1;strokeWidth=3;" vertex="1" parent="1">
          <mxGeometry x="1646.5" y="-1035" width="230" height="60" as="geometry" />
        </mxCell>
        <mxCell id="h31C9qJfq2-c_-45Vrlb-53" value="&lt;b&gt;&lt;font style=&quot;font-size: 15px;&quot;&gt;ASG&lt;/font&gt;&lt;/b&gt;" style="rounded=0;whiteSpace=wrap;html=1;strokeWidth=3;" vertex="1" parent="1">
          <mxGeometry x="1651.5" y="-935" width="230" height="60" as="geometry" />
        </mxCell>
        <mxCell id="h31C9qJfq2-c_-45Vrlb-54" value="&lt;b&gt;&lt;font style=&quot;font-size: 15px;&quot;&gt;PROJ&lt;/font&gt;&lt;/b&gt;" style="rounded=0;whiteSpace=wrap;html=1;strokeWidth=3;" vertex="1" parent="1">
          <mxGeometry x="1651.5" y="-835" width="230" height="60" as="geometry" />
        </mxCell>
        <mxCell id="h31C9qJfq2-c_-45Vrlb-55" value="" style="endArrow=none;html=1;rounded=0;exitX=1;exitY=0.5;exitDx=0;exitDy=0;strokeWidth=3;" edge="1" parent="1">
          <mxGeometry width="50" height="50" relative="1" as="geometry">
            <mxPoint x="977" y="-315.5" as="sourcePoint" />
            <mxPoint x="1037" y="-315.5" as="targetPoint" />
            <Array as="points">
              <mxPoint x="957" y="-315" />
            </Array>
          </mxGeometry>
        </mxCell>
        <mxCell id="h31C9qJfq2-c_-45Vrlb-56" value="" style="endArrow=classic;html=1;rounded=0;entryX=0;entryY=0.5;entryDx=0;entryDy=0;strokeWidth=3;" edge="1" parent="1">
          <mxGeometry width="50" height="50" relative="1" as="geometry">
            <mxPoint x="1037" y="-545" as="sourcePoint" />
            <mxPoint x="1207" y="-545" as="targetPoint" />
          </mxGeometry>
        </mxCell>
        <mxCell id="h31C9qJfq2-c_-45Vrlb-57" value="" style="endArrow=classic;html=1;rounded=0;entryX=0;entryY=0.5;entryDx=0;entryDy=0;strokeWidth=3;" edge="1" parent="1">
          <mxGeometry width="50" height="50" relative="1" as="geometry">
            <mxPoint x="1037" y="-435" as="sourcePoint" />
            <mxPoint x="1207" y="-435" as="targetPoint" />
          </mxGeometry>
        </mxCell>
        <mxCell id="h31C9qJfq2-c_-45Vrlb-58" value="" style="endArrow=none;html=1;rounded=0;strokeWidth=3;" edge="1" parent="1">
          <mxGeometry width="50" height="50" relative="1" as="geometry">
            <mxPoint x="1037" y="-545" as="sourcePoint" />
            <mxPoint x="1037" y="-185" as="targetPoint" />
          </mxGeometry>
        </mxCell>
        <mxCell id="h31C9qJfq2-c_-45Vrlb-59" value="" style="endArrow=classic;html=1;rounded=0;entryX=0;entryY=0.5;entryDx=0;entryDy=0;strokeWidth=3;" edge="1" parent="1">
          <mxGeometry width="50" height="50" relative="1" as="geometry">
            <mxPoint x="1037" y="-315.5" as="sourcePoint" />
            <mxPoint x="1207" y="-315.5" as="targetPoint" />
          </mxGeometry>
        </mxCell>
        <mxCell id="h31C9qJfq2-c_-45Vrlb-60" value="&lt;font face=&quot;Times New Roman&quot;&gt;&lt;span style=&quot;font-size: 15px;&quot;&gt;&lt;b&gt;Dynamic Approach&lt;/b&gt;&lt;/span&gt;&lt;/font&gt;" style="rounded=0;whiteSpace=wrap;html=1;strokeWidth=3;" vertex="1" parent="1">
          <mxGeometry x="1207" y="-575" width="220" height="60" as="geometry" />
        </mxCell>
        <mxCell id="h31C9qJfq2-c_-45Vrlb-61" value="&lt;b&gt;&lt;font style=&quot;font-size: 15px;&quot;&gt;Static Approach&lt;/font&gt;&lt;/b&gt;" style="rounded=0;whiteSpace=wrap;html=1;strokeWidth=3;" vertex="1" parent="1">
          <mxGeometry x="1207" y="-460" width="220" height="60" as="geometry" />
        </mxCell>
        <mxCell id="h31C9qJfq2-c_-45Vrlb-62" value="&lt;b&gt;&lt;font face=&quot;Times New Roman&quot; style=&quot;font-size: 15px;&quot;&gt;Semijoin-based Approach&lt;/font&gt;&lt;/b&gt;" style="rounded=0;whiteSpace=wrap;html=1;strokeWidth=3;" vertex="1" parent="1">
          <mxGeometry x="1207" y="-345" width="220" height="60" as="geometry" />
        </mxCell>
        <mxCell id="Cth6C3M8y_-AIjd2zebk-51" value="" style="endArrow=none;html=1;rounded=0;exitX=1;exitY=0.5;exitDx=0;exitDy=0;strokeWidth=3;" edge="1" parent="1">
          <mxGeometry width="50" height="50" relative="1" as="geometry">
            <mxPoint x="1406" y="-1589" as="sourcePoint" />
            <mxPoint x="1466" y="-1589" as="targetPoint" />
          </mxGeometry>
        </mxCell>
        <mxCell id="Cth6C3M8y_-AIjd2zebk-52" value="" style="endArrow=classic;html=1;rounded=0;entryX=0;entryY=0.5;entryDx=0;entryDy=0;strokeWidth=3;" edge="1" parent="1">
          <mxGeometry width="50" height="50" relative="1" as="geometry">
            <mxPoint x="1465" y="-1707.5" as="sourcePoint" />
            <mxPoint x="1635" y="-1707.5" as="targetPoint" />
            <Array as="points">
              <mxPoint x="1556" y="-1707.5" />
            </Array>
          </mxGeometry>
        </mxCell>
        <mxCell id="Cth6C3M8y_-AIjd2zebk-53" value="" style="endArrow=classic;html=1;rounded=0;entryX=0;entryY=0.5;entryDx=0;entryDy=0;strokeWidth=3;" edge="1" parent="1">
          <mxGeometry width="50" height="50" relative="1" as="geometry">
            <mxPoint x="1466" y="-1618" as="sourcePoint" />
            <mxPoint x="1636" y="-1618" as="targetPoint" />
          </mxGeometry>
        </mxCell>
        <mxCell id="Cth6C3M8y_-AIjd2zebk-54" value="" style="endArrow=none;html=1;rounded=0;strokeWidth=3;" edge="1" parent="1">
          <mxGeometry width="50" height="50" relative="1" as="geometry">
            <mxPoint x="1466" y="-1707" as="sourcePoint" />
            <mxPoint x="1466" y="-1397" as="targetPoint" />
          </mxGeometry>
        </mxCell>
        <mxCell id="Cth6C3M8y_-AIjd2zebk-55" value="" style="endArrow=classic;html=1;rounded=0;entryX=0;entryY=0.5;entryDx=0;entryDy=0;strokeWidth=3;" edge="1" parent="1">
          <mxGeometry width="50" height="50" relative="1" as="geometry">
            <mxPoint x="1466" y="-1513" as="sourcePoint" />
            <mxPoint x="1636" y="-1513" as="targetPoint" />
          </mxGeometry>
        </mxCell>
        <mxCell id="Cth6C3M8y_-AIjd2zebk-56" value="&lt;font size=&quot;1&quot; face=&quot;Times New Roman&quot;&gt;&lt;b style=&quot;font-size: 15px;&quot;&gt;Cost Function&lt;/b&gt;&lt;/font&gt;" style="rounded=0;whiteSpace=wrap;html=1;strokeWidth=3;" vertex="1" parent="1">
          <mxGeometry x="1636" y="-1737" width="250" height="60" as="geometry" />
        </mxCell>
        <mxCell id="Cth6C3M8y_-AIjd2zebk-57" value="&lt;b&gt;&lt;font face=&quot;Times New Roman&quot; style=&quot;font-size: 15px;&quot;&gt;Database Statistics&lt;/font&gt;&lt;/b&gt;" style="rounded=0;whiteSpace=wrap;html=1;strokeWidth=3;" vertex="1" parent="1">
          <mxGeometry x="1636" y="-1643" width="250" height="60" as="geometry" />
        </mxCell>
        <mxCell id="Cth6C3M8y_-AIjd2zebk-58" value="&lt;b&gt;&lt;font style=&quot;font-size: 15px;&quot; face=&quot;Times New Roman&quot;&gt;Cardinalities of Intermediate Results&lt;/font&gt;&lt;/b&gt;" style="rounded=0;whiteSpace=wrap;html=1;strokeWidth=3;" vertex="1" parent="1">
          <mxGeometry x="1636" y="-1543" width="250" height="60" as="geometry" />
        </mxCell>
        <mxCell id="h31C9qJfq2-c_-45Vrlb-63" value="" style="endArrow=classic;html=1;rounded=0;entryX=0;entryY=0.5;entryDx=0;entryDy=0;strokeWidth=3;" edge="1" parent="1">
          <mxGeometry width="50" height="50" relative="1" as="geometry">
            <mxPoint x="1037" y="-185" as="sourcePoint" />
            <mxPoint x="1207" y="-185" as="targetPoint" />
          </mxGeometry>
        </mxCell>
        <mxCell id="h31C9qJfq2-c_-45Vrlb-64" value="&lt;b&gt;&lt;font face=&quot;Times New Roman&quot; style=&quot;font-size: 15px;&quot;&gt;Hybrid Approach&lt;/font&gt;&lt;/b&gt;" style="rounded=0;whiteSpace=wrap;html=1;strokeWidth=3;" vertex="1" parent="1">
          <mxGeometry x="1207" y="-215" width="220" height="60" as="geometry" />
        </mxCell>
        <mxCell id="Cth6C3M8y_-AIjd2zebk-59" value="" style="endArrow=classic;html=1;rounded=0;entryX=0;entryY=0.5;entryDx=0;entryDy=0;strokeWidth=3;" edge="1" parent="1">
          <mxGeometry width="50" height="50" relative="1" as="geometry">
            <mxPoint x="1466" y="-1398" as="sourcePoint" />
            <mxPoint x="1636" y="-1398" as="targetPoint" />
          </mxGeometry>
        </mxCell>
        <mxCell id="Cth6C3M8y_-AIjd2zebk-61" value="&lt;b&gt;&lt;font style=&quot;font-size: 15px;&quot; face=&quot;Times New Roman&quot;&gt;Using Histograms for Selectivity Estimation&lt;/font&gt;&lt;/b&gt;" style="rounded=0;whiteSpace=wrap;html=1;strokeWidth=3;" vertex="1" parent="1">
          <mxGeometry x="1636" y="-1423" width="250" height="60" as="geometry" />
        </mxCell>
        <mxCell id="h31C9qJfq2-c_-45Vrlb-71" value="" style="endArrow=none;html=1;rounded=0;exitX=1;exitY=0.5;exitDx=0;exitDy=0;strokeWidth=3;" edge="1" parent="1">
          <mxGeometry width="50" height="50" relative="1" as="geometry">
            <mxPoint x="1425" y="-185" as="sourcePoint" />
            <mxPoint x="1485" y="-185" as="targetPoint" />
          </mxGeometry>
        </mxCell>
        <mxCell id="h31C9qJfq2-c_-45Vrlb-72" value="" style="endArrow=classic;html=1;rounded=0;entryX=0;entryY=0.5;entryDx=0;entryDy=0;strokeWidth=3;" edge="1" parent="1">
          <mxGeometry width="50" height="50" relative="1" as="geometry">
            <mxPoint x="1484" y="-236" as="sourcePoint" />
            <mxPoint x="1654" y="-236" as="targetPoint" />
          </mxGeometry>
        </mxCell>
        <mxCell id="h31C9qJfq2-c_-45Vrlb-73" value="" style="endArrow=none;html=1;rounded=0;strokeWidth=3;" edge="1" parent="1">
          <mxGeometry width="50" height="50" relative="1" as="geometry">
            <mxPoint x="1485" y="-235" as="sourcePoint" />
            <mxPoint x="1485" y="-135" as="targetPoint" />
          </mxGeometry>
        </mxCell>
        <mxCell id="h31C9qJfq2-c_-45Vrlb-74" value="" style="endArrow=classic;html=1;rounded=0;entryX=0;entryY=0.5;entryDx=0;entryDy=0;strokeWidth=3;" edge="1" parent="1">
          <mxGeometry width="50" height="50" relative="1" as="geometry">
            <mxPoint x="1486" y="-138" as="sourcePoint" />
            <mxPoint x="1656" y="-138" as="targetPoint" />
          </mxGeometry>
        </mxCell>
        <mxCell id="h31C9qJfq2-c_-45Vrlb-75" value="&lt;font size=&quot;1&quot; face=&quot;Times New Roman&quot;&gt;&lt;b style=&quot;font-size: 15px;&quot;&gt;A 2-Step Plan&lt;/b&gt;&lt;/font&gt;" style="rounded=0;whiteSpace=wrap;html=1;strokeWidth=3;" vertex="1" parent="1">
          <mxGeometry x="1654" y="-265" width="203" height="60" as="geometry" />
        </mxCell>
        <mxCell id="h31C9qJfq2-c_-45Vrlb-76" value="&lt;font face=&quot;Times New Roman&quot; style=&quot;font-size: 15px;&quot;&gt;&lt;b&gt;Run-time Plan&lt;/b&gt;&lt;/font&gt;" style="rounded=0;whiteSpace=wrap;html=1;strokeWidth=3;" vertex="1" parent="1">
          <mxGeometry x="1655" y="-165" width="202" height="60" as="geometry" />
        </mxCell>
        <mxCell id="Cth6C3M8y_-AIjd2zebk-63" value="" style="endArrow=none;html=1;rounded=0;exitX=1;exitY=0.5;exitDx=0;exitDy=0;strokeWidth=3;" edge="1" parent="1">
          <mxGeometry width="50" height="50" relative="1" as="geometry">
            <mxPoint x="1886" y="-1393" as="sourcePoint" />
            <mxPoint x="1946" y="-1393" as="targetPoint" />
          </mxGeometry>
        </mxCell>
        <mxCell id="Cth6C3M8y_-AIjd2zebk-64" value="" style="endArrow=classic;html=1;rounded=0;entryX=0;entryY=0.5;entryDx=0;entryDy=0;strokeWidth=3;" edge="1" parent="1" target="Cth6C3M8y_-AIjd2zebk-67">
          <mxGeometry width="50" height="50" relative="1" as="geometry">
            <mxPoint x="1945" y="-1444" as="sourcePoint" />
            <mxPoint x="2115" y="-1444" as="targetPoint" />
          </mxGeometry>
        </mxCell>
        <mxCell id="Cth6C3M8y_-AIjd2zebk-65" value="" style="endArrow=none;html=1;rounded=0;strokeWidth=3;" edge="1" parent="1">
          <mxGeometry width="50" height="50" relative="1" as="geometry">
            <mxPoint x="1946" y="-1443" as="sourcePoint" />
            <mxPoint x="1946" y="-1343" as="targetPoint" />
          </mxGeometry>
        </mxCell>
        <mxCell id="Cth6C3M8y_-AIjd2zebk-66" value="" style="endArrow=classic;html=1;rounded=0;entryX=0;entryY=0.5;entryDx=0;entryDy=0;strokeWidth=3;" edge="1" parent="1" target="Cth6C3M8y_-AIjd2zebk-68">
          <mxGeometry width="50" height="50" relative="1" as="geometry">
            <mxPoint x="1946" y="-1343" as="sourcePoint" />
            <mxPoint x="2117" y="-1346" as="targetPoint" />
          </mxGeometry>
        </mxCell>
        <mxCell id="Cth6C3M8y_-AIjd2zebk-67" value="&lt;font size=&quot;1&quot; face=&quot;Times New Roman&quot;&gt;&lt;b style=&quot;font-size: 15px;&quot;&gt;Equality predicate.&lt;/b&gt;&lt;/font&gt;" style="rounded=0;whiteSpace=wrap;html=1;strokeWidth=3;" vertex="1" parent="1">
          <mxGeometry x="2016" y="-1473" width="210" height="60" as="geometry" />
        </mxCell>
        <mxCell id="Cth6C3M8y_-AIjd2zebk-68" value="&lt;font size=&quot;1&quot; face=&quot;Times New Roman&quot;&gt;&lt;b style=&quot;font-size: 15px;&quot;&gt;Range predicate.&lt;/b&gt;&lt;/font&gt;" style="rounded=0;whiteSpace=wrap;html=1;strokeWidth=3;" vertex="1" parent="1">
          <mxGeometry x="2016" y="-1373" width="209" height="60" as="geometry" />
        </mxCell>
        <mxCell id="uTXmcrCuEZEmEW-4IXdP-1" value="" style="endArrow=none;html=1;rounded=0;strokeWidth=3;" edge="1" parent="1">
          <mxGeometry width="50" height="50" relative="1" as="geometry">
            <mxPoint x="617" y="-1708" as="sourcePoint" />
            <mxPoint x="617" y="-318" as="targetPoint" />
          </mxGeometry>
        </mxCell>
        <mxCell id="uTXmcrCuEZEmEW-4IXdP-2" value="" style="endArrow=classic;html=1;rounded=0;exitX=1;exitY=0.5;exitDx=0;exitDy=0;strokeWidth=3;" edge="1" parent="1" source="Cth6C3M8y_-AIjd2zebk-1">
          <mxGeometry width="50" height="50" relative="1" as="geometry">
            <mxPoint x="967" y="-1235" as="sourcePoint" />
            <mxPoint x="617" y="-968" as="targetPoint" />
          </mxGeometry>
        </mxCell>
        <mxCell id="uTXmcrCuEZEmEW-4IXdP-3" value="" style="endArrow=none;html=1;rounded=0;" edge="1" parent="1">
          <mxGeometry width="50" height="50" relative="1" as="geometry">
            <mxPoint x="2320" as="sourcePoint" />
            <mxPoint x="-200" as="targetPoint" />
          </mxGeometry>
        </mxCell>
        <mxCell id="uTXmcrCuEZEmEW-4IXdP-4" value="" style="endArrow=none;html=1;rounded=0;" edge="1" parent="1">
          <mxGeometry width="50" height="50" relative="1" as="geometry">
            <mxPoint x="2320" y="-2000" as="sourcePoint" />
            <mxPoint x="-200" y="-2000" as="targetPoint" />
          </mxGeometry>
        </mxCell>
        <mxCell id="uTXmcrCuEZEmEW-4IXdP-5" value="" style="endArrow=none;html=1;rounded=0;" edge="1" parent="1">
          <mxGeometry width="50" height="50" relative="1" as="geometry">
            <mxPoint x="2320" as="sourcePoint" />
            <mxPoint x="2320" y="-2000" as="targetPoint" />
          </mxGeometry>
        </mxCell>
        <mxCell id="uTXmcrCuEZEmEW-4IXdP-6" value="" style="endArrow=none;html=1;rounded=0;" edge="1" parent="1">
          <mxGeometry width="50" height="50" relative="1" as="geometry">
            <mxPoint x="-200" as="sourcePoint" />
            <mxPoint x="-200" y="-2000" as="targetPoint" />
          </mxGeometry>
        </mxCell>
        <mxCell id="kt-PWTmN8fbw9gSfol_U-1" value="&lt;h1 style=&quot;font-size: 17px;&quot;&gt;&lt;font style=&quot;font-size: 17px;&quot; face=&quot;Times New Roman&quot;&gt;Group 03:&lt;/font&gt;&lt;/h1&gt;&lt;h1 style=&quot;font-size: 17px;&quot;&gt;&lt;font style=&quot;font-size: 17px;&quot; face=&quot;Times New Roman&quot;&gt;1. 23166004 Afsana Kabir sinthia&lt;/font&gt;&lt;/h1&gt;&lt;h1 style=&quot;font-size: 17px;&quot;&gt;&lt;font style=&quot;font-size: 17px;&quot; face=&quot;Times New Roman&quot;&gt;2. 23166021 Sadia Islam&lt;/font&gt;&lt;/h1&gt;&lt;h1 style=&quot;font-size: 17px;&quot;&gt;&lt;font style=&quot;font-size: 17px;&quot; face=&quot;Times New Roman&quot;&gt;3. 23173006 Md. Tariqul Islam&lt;/font&gt;&lt;/h1&gt;&lt;h1 style=&quot;font-size: 17px;&quot;&gt;&lt;font style=&quot;font-size: 17px;&quot; face=&quot;Times New Roman&quot;&gt;4. 22366047 Nisat Islam Mozumder&lt;/font&gt;&lt;/h1&gt;&lt;h1 style=&quot;font-size: 17px;&quot;&gt;&lt;font style=&quot;font-size: 17px;&quot; face=&quot;Times New Roman&quot;&gt;5. 23166010 Iffat Ara Jui&lt;/font&gt;&lt;/h1&gt;&lt;div style=&quot;font-size: 17px;&quot;&gt;&lt;font style=&quot;font-size: 17px;&quot; face=&quot;Times New Roman&quot;&gt;&lt;b&gt;ST &amp;amp; TA : Ehsanur Rahman Rhythm &amp;amp; Sania Azhmee Bhuiyan&lt;/b&gt;&lt;/font&gt;&lt;/div&gt;" style="rounded=0;whiteSpace=wrap;html=1;align=left;" vertex="1" parent="1">
          <mxGeometry x="-180" y="-1970" width="670" height="240.5" as="geometry" />
        </mxCell>
      </root>
    </mxGraphModel>
  </diagram>
</mxfile>
